<?xml version="1.0" encoding="utf-8"?>
<svg xmlns="http://www.w3.org/2000/svg">
  <symbol id="cart" viewBox="0 0 24 24">
    <title>cart</title>
    <path d="M9 21.75c0 1.243-1.007 2.25-2.25 2.25s-2.25-1.007-2.25-2.25c0-1.243 1.007-2.25 2.25-2.25s2.25 1.007 2.25 2.25z"/>
    <path d="M24 21.75c0 1.243-1.007 2.25-2.25 2.25s-2.25-1.007-2.25-2.25c0-1.243 1.007-2.25 2.25-2.25s2.25 1.007 2.25 2.25z"/>
    <path d="M24 12v-9h-18c0-0.828-0.672-1.5-1.5-1.5h-4.5v1.5h3l1.127 9.658c-0.687 0.55-1.127 1.395-1.127 2.342 0 1.657 1.343 3 3 3h18v-1.5h-18c-0.828 0-1.5-0.672-1.5-1.5 0-0.005 0-0.010 0-0.015l19.5-2.985z"/>
  </symbol>
  <symbol id="infinite" viewBox="0 0 24 24">
    <title>infinite</title>
    <path d="M18.375 17.625c-1.502 0-2.915-0.585-3.977-1.647l-2.397-2.397-2.397 2.397c-1.062 1.063-2.475 1.648-3.977 1.648s-2.915-0.585-3.978-1.648c-1.062-1.063-1.648-2.475-1.648-3.978s0.585-2.915 1.648-3.978c1.063-1.062 2.475-1.648 3.978-1.648s2.915 0.585 3.978 1.648l2.397 2.397 2.397-2.397c1.062-1.062 2.475-1.648 3.978-1.648s2.915 0.585 3.978 1.648c1.063 1.063 1.648 2.475 1.648 3.978s-0.585 2.915-1.648 3.978c-1.062 1.063-2.475 1.648-3.978 1.648zM15.978 14.397c0.64 0.64 1.492 0.993 2.397 0.993s1.757-0.353 2.397-0.993c0.64-0.64 0.993-1.492 0.993-2.397s-0.353-1.757-0.993-2.397c-0.64-0.64-1.492-0.993-2.397-0.993s-1.757 0.353-2.397 0.993l-2.397 2.397 2.397 2.397zM5.625 8.61c-0.905 0-1.757 0.353-2.397 0.993s-0.993 1.492-0.993 2.397c0 0.905 0.353 1.757 0.993 2.397s1.492 0.993 2.397 0.993c0.905 0 1.757-0.353 2.397-0.993l2.397-2.397-2.397-2.397c-0.64-0.64-1.492-0.993-2.397-0.993v0z"/>
  </symbol>
  <symbol id="leaf" viewBox="0 0 24 24">
    <title>leaf</title>
    <path d="M23.703 3.152c-2.596-1.967-6.59-3.141-10.685-3.141-5.065 0-9.193 1.769-11.324 4.852-1.001 1.448-1.555 3.163-1.645 5.097-0.081 1.722 0.208 3.626 0.86 5.675 2.224-6.665 8.433-11.885 15.592-11.885 0 0-6.699 1.763-10.911 7.223-0.003 0.003-0.058 0.072-0.155 0.204-0.846 1.132-1.583 2.418-2.135 3.875-0.934 2.223-1.8 5.272-1.8 8.948h3c0 0-0.455-2.865 0.337-6.159 1.31 0.177 2.481 0.265 3.536 0.265 2.758 0 4.72-0.597 6.173-1.878 1.302-1.148 2.020-2.69 2.78-4.323 1.161-2.494 2.476-5.321 6.297-7.504 0.219-0.125 0.36-0.351 0.376-0.603s-0.095-0.494-0.295-0.646z"/>
  </symbol>
  <symbol id="stopwatch" viewBox="0 0 24 24">
    <title>stopwatch</title>
    <path d="M12 4.528v-1.528h3v-1.5c0-0.828-0.672-1.5-1.5-1.5h-4.5c-0.828 0-1.5 0.672-1.5 1.5v1.5h3v1.528c-5.034 0.383-9 4.589-9 9.722 0 5.385 4.365 9.75 9.75 9.75s9.75-4.365 9.75-9.75c0-5.132-3.966-9.339-9-9.722zM16.553 19.553c-1.417 1.417-3.3 2.197-5.303 2.197s-3.887-0.78-5.303-2.197c-1.417-1.417-2.197-3.3-2.197-5.303s0.78-3.887 2.197-5.303c1.36-1.36 3.151-2.133 5.065-2.193l-0.508 7.36c-0.044 0.616 0.292 0.886 0.746 0.886s0.79-0.27 0.746-0.886l-0.508-7.36c1.914 0.059 3.705 0.832 5.065 2.193 1.417 1.417 2.197 3.3 2.197 5.303s-0.78 3.887-2.197 5.303z"/>
  </symbol>
</svg>
